<svg id="visual" viewBox="0 0 900 600" width="900" height="600" xmlns="http://www.w3.org/2000/svg" xmlns:xlink="http://www.w3.org/1999/xlink" version="1.1"><rect x="0" y="0" width="900" height="600" fill="#053a58"></rect><path d="M0 185L6.8 192.2C13.7 199.3 27.3 213.7 41 207.8C54.7 202 68.3 176 82 159.2C95.7 142.3 109.3 134.7 123 137.5C136.7 140.3 150.3 153.7 164 167C177.7 180.3 191.3 193.7 204.8 199.2C218.3 204.7 231.7 202.3 245.2 207.3C258.7 212.3 272.3 224.7 286 223.5C299.7 222.3 313.3 207.7 327 195.8C340.7 184 354.3 175 368 179.7C381.7 184.3 395.3 202.7 409 207.8C422.7 213 436.3 205 450 191.2C463.7 177.3 477.3 157.7 491 147.8C504.7 138 518.3 138 532 132.8C545.7 127.7 559.3 117.3 573 116C586.7 114.7 600.3 122.3 614 142.2C627.7 162 641.3 194 654.8 196.5C668.3 199 681.7 172 695.2 157C708.7 142 722.3 139 736 148.2C749.7 157.3 763.3 178.7 777 178.3C790.7 178 804.3 156 818 164.2C831.7 172.3 845.3 210.7 859 228.3C872.7 246 886.3 243 893.2 241.5L900 240L900 0L893.2 0C886.3 0 872.7 0 859 0C845.3 0 831.7 0 818 0C804.3 0 790.7 0 777 0C763.3 0 749.7 0 736 0C722.3 0 708.7 0 695.2 0C681.7 0 668.3 0 654.8 0C641.3 0 627.7 0 614 0C600.3 0 586.7 0 573 0C559.3 0 545.7 0 532 0C518.3 0 504.7 0 491 0C477.3 0 463.7 0 450 0C436.3 0 422.7 0 409 0C395.3 0 381.7 0 368 0C354.3 0 340.7 0 327 0C313.3 0 299.7 0 286 0C272.3 0 258.7 0 245.2 0C231.7 0 218.3 0 204.8 0C191.3 0 177.7 0 164 0C150.3 0 136.7 0 123 0C109.3 0 95.7 0 82 0C68.3 0 54.7 0 41 0C27.3 0 13.7 0 6.8 0L0 0Z" fill="#4fdbf7" stroke-linecap="round" stroke-linejoin="miter"></path></svg>