<svg id="visual" viewBox="0 0 960 540" width="960" height="540" xmlns="http://www.w3.org/2000/svg" xmlns:xlink="http://www.w3.org/1999/xlink" version="1.1"><rect x="0" y="0" width="960" height="540" fill="#053a58"></rect><path d="M0 313L7.3 316.2C14.7 319.3 29.3 325.7 43.8 332C58.3 338.3 72.7 344.7 87.2 348.5C101.7 352.3 116.3 353.7 131 365.5C145.7 377.3 160.3 399.7 174.8 394C189.3 388.3 203.7 354.7 218.2 355.7C232.7 356.7 247.3 392.3 261.8 398.7C276.3 405 290.7 382 305.2 365.5C319.7 349 334.3 339 349 331.7C363.7 324.3 378.3 319.7 392.8 321.3C407.3 323 421.7 331 436.2 335.2C450.7 339.3 465.3 339.7 480 339.2C494.7 338.7 509.3 337.3 523.8 353.2C538.3 369 552.7 402 567.2 403.7C581.7 405.3 596.3 375.7 611 374.3C625.7 373 640.3 400 654.8 399.2C669.3 398.3 683.7 369.7 698.2 351.2C712.7 332.7 727.3 324.3 741.8 325.3C756.3 326.3 770.7 336.7 785.2 343.8C799.7 351 814.3 355 829 368C843.7 381 858.3 403 872.8 396.7C887.3 390.3 901.7 355.7 916.2 356.2C930.7 356.7 945.3 392.3 952.7 410.2L960 428" fill="none" stroke-linecap="round" stroke-linejoin="miter" stroke="#4fdbf7" stroke-width="9"></path></svg>