<svg id="visual" viewBox="0 0 960 540" width="960" height="540" xmlns="http://www.w3.org/2000/svg" xmlns:xlink="http://www.w3.org/1999/xlink" version="1.1"><rect x="0" y="0" width="960" height="540" fill="#053a58"></rect><path d="M0 166L7.3 172.5C14.7 179 29.3 192 43.8 186.8C58.3 181.7 72.7 158.3 87.2 143.2C101.7 128 116.3 121 131 123.5C145.7 126 160.3 138 174.8 150C189.3 162 203.7 174 218.2 179C232.7 184 247.3 182 261.8 186.5C276.3 191 290.7 202 305.2 201C319.7 200 334.3 187 349 176.3C363.7 165.7 378.3 157.3 392.8 161.5C407.3 165.7 421.7 182.3 436.2 187C450.7 191.7 465.3 184.3 480 171.8C494.7 159.3 509.3 141.7 523.8 132.8C538.3 124 552.7 124 567.2 119.5C581.7 115 596.3 106 611 104.8C625.7 103.7 640.3 110.3 654.8 128C669.3 145.7 683.7 174.3 698.2 176.7C712.7 179 727.3 155 741.8 141.5C756.3 128 770.7 125 785.2 133.2C799.7 141.3 814.3 160.7 829 160.3C843.7 160 858.3 140 872.8 147.3C887.3 154.7 901.7 189.3 916.2 205.3C930.7 221.3 945.3 218.7 952.7 217.3L960 216" fill="none" stroke-linecap="round" stroke-linejoin="miter" stroke="#4fdbf7" stroke-width="9"></path></svg>